<svg width="24" height="24" viewBox="0 0 24 24" fill="none" xmlns="http://www.w3.org/2000/svg">
<path d="M2.89595 24C2.83113 24 2.76688 23.9819 2.71088 23.9471C2.63207 23.8979 2.57607 23.8197 2.55507 23.7291L0.00918494 12.773C-0.0346324 12.5847 0.0825405 12.3967 0.270829 12.3528L1.21283 12.134L11.9491 3.13903L11.3282 2.57738C11.1163 2.70814 10.8669 2.78345 10.6002 2.78345C9.83281 2.78345 9.20859 2.15909 9.20859 1.3918C9.20859 0.624502 9.83281 0 10.6002 0C11.3677 0 11.9919 0.624362 11.9919 1.39166C11.9919 1.63888 11.9271 1.87127 11.8137 2.07257L12.4908 2.68504L12.6472 2.554C12.7735 2.44803 12.9566 2.44467 13.0869 2.54589L19.8458 7.80411L20.7122 7.6028C20.9008 7.55954 21.0885 7.67629 21.1324 7.86458L23.6784 18.8207C23.7222 19.009 23.605 19.197 23.4167 19.2409L2.97518 23.991C2.94901 23.9971 2.92241 24 2.89595 24ZM0.770179 12.9555L3.15759 23.23L22.9173 18.6383L20.5297 8.36393L19.8467 8.52268C19.8436 8.52352 19.8404 8.52422 19.8372 8.52492L1.46146 12.7948C1.45572 12.7963 1.44998 12.7977 1.4441 12.7989L0.770179 12.9555ZM12.4732 3.61304L2.72096 11.7836L18.968 8.00821L13.3092 3.60604C13.3039 3.6815 13.2742 3.75583 13.2196 3.81631C13.0901 3.95966 12.8688 3.97086 12.7253 3.84123L12.4732 3.61304ZM10.6002 0.699957C10.2188 0.699957 9.90855 1.01032 9.90855 1.39166C9.90855 1.77299 10.2189 2.08335 10.6002 2.08335C10.7908 2.08335 10.9637 2.0058 11.089 1.88079C11.0926 1.87701 11.0962 1.87309 11.1 1.86945C11.2189 1.74513 11.2921 1.57672 11.2921 1.39166C11.2919 1.01032 10.9817 0.699957 10.6002 0.699957ZM5.47921 19.7087C5.32032 19.7087 5.17655 19.5998 5.13875 19.4384L4.23623 15.5881C4.19213 15.3999 4.30888 15.2116 4.49717 15.1675C4.61323 15.1404 4.72942 15.1742 4.81173 15.2486C4.97958 15.0858 5.18887 14.971 5.42238 14.9162C5.76242 14.8366 6.11351 14.8938 6.41044 15.0781C6.70736 15.2622 6.91483 15.551 6.99462 15.8913C7.15925 16.5935 6.72178 17.2989 6.01958 17.4634C5.96554 17.4761 5.91137 17.4852 5.85747 17.4908L7.64166 18.5973C7.80587 18.6994 7.85641 18.9151 7.75463 19.0792C7.65272 19.2435 7.43713 19.2938 7.27278 19.1923L5.54963 18.1234L5.82037 19.2785C5.86447 19.4667 5.74758 19.6549 5.55943 19.699C5.53255 19.7056 5.50567 19.7087 5.47921 19.7087ZM5.72224 15.5815C5.67562 15.5815 5.62872 15.5869 5.58225 15.5977C5.42406 15.6349 5.2898 15.7313 5.20413 15.8693C5.11845 16.0073 5.09172 16.1704 5.12881 16.3286C5.20525 16.6549 5.53311 16.8575 5.85985 16.782C6.18631 16.7053 6.38972 16.3775 6.31314 16.0509C6.27604 15.8927 6.17959 15.7584 6.04156 15.6729C5.94412 15.6126 5.83423 15.5815 5.72224 15.5815ZM9.342 18.6211C9.18311 18.6211 9.03934 18.5122 9.00154 18.3508L8.58591 16.5777C8.58548 16.5761 8.5852 16.5747 8.58478 16.573C8.5845 16.5715 8.58408 16.5701 8.5838 16.5684L8.14423 14.6931C8.14423 14.6928 8.14409 14.6924 8.14395 14.692C8.09985 14.5038 8.21675 14.3155 8.40489 14.2714L10.4831 13.7844C10.6711 13.7403 10.8595 13.8572 10.9036 14.0452C10.9477 14.2332 10.8308 14.4216 10.6427 14.4657L8.90522 14.873L9.18647 16.0724L10.2311 15.8276C10.4192 15.7833 10.6077 15.9004 10.6518 16.0884C10.6959 16.2765 10.5791 16.4648 10.391 16.5089L9.3462 16.7539L9.60308 17.8502L11.3407 17.4431C11.5287 17.399 11.7171 17.5159 11.7612 17.7039C11.8053 17.8919 11.6884 18.0803 11.5002 18.1244L9.42305 18.6115C9.42277 18.6115 9.42235 18.6116 9.42207 18.6116C9.39534 18.6179 9.36846 18.6211 9.342 18.6211ZM12.9315 17.7796C12.7726 17.7796 12.6289 17.6707 12.5911 17.5093L11.7335 13.8505C11.7028 13.7199 11.7497 13.5894 11.8442 13.5068C11.9743 13.3667 12.1933 13.3563 12.3356 13.4851L14.972 15.8679L14.3551 13.2359C14.311 13.0478 14.4278 12.8595 14.6159 12.8154C14.8043 12.7713 14.9925 12.8882 15.0366 13.0762L15.8942 16.735C15.9247 16.8652 15.8781 16.9955 15.7841 17.078C15.6544 17.2192 15.4348 17.2296 15.2921 17.1005L12.6557 14.718L13.2725 17.3497C13.3166 17.5379 13.1999 17.7261 13.0116 17.7702C12.9849 17.7764 12.958 17.7796 12.9315 17.7796ZM18.3162 16.5175C18.1573 16.5175 18.0135 16.4085 17.9757 16.2471L17.1979 12.9291L16.2278 13.1564C16.0396 13.2002 15.8512 13.0836 15.8072 12.8956C15.7631 12.7074 15.8799 12.5192 16.0682 12.4751L18.6898 11.8605C18.8779 11.8163 19.0662 11.9333 19.1103 12.1213C19.1544 12.3095 19.0377 12.4977 18.8494 12.5418L17.8794 12.7693L18.6572 16.0874C18.7013 16.2756 18.5845 16.4638 18.3964 16.5079C18.3695 16.5144 18.3426 16.5175 18.3162 16.5175Z" fill="#466B6F"/>
</svg>
