<svg width="27" height="32" viewBox="0 0 27 32" fill="none" xmlns="http://www.w3.org/2000/svg">
<path d="M17.9997 18.7281V23.835C17.9997 24.0944 18.21 24.3047 18.4693 24.3047C18.7287 24.3047 18.939 24.0944 18.939 23.835V18.3886C18.939 18.1807 18.8025 17.9976 18.6032 17.9384C17.5396 17.622 16.5827 16.9579 15.9089 16.0681C15.2129 15.1491 14.8449 14.0521 14.8449 12.8959C14.8449 9.99524 17.2047 7.63543 20.1053 7.63543C20.6472 7.63543 21.1776 7.71793 21.681 7.87556C21.5393 8.4165 21.3167 8.92893 21.0245 9.39756C20.7559 9.27056 20.456 9.19918 20.1397 9.19918C18.9942 9.19918 18.0622 10.1311 18.0622 11.2767C18.0622 12.4222 18.9941 13.3541 20.1397 13.3541C21.2852 13.3541 22.2172 12.4222 22.2172 11.2767C22.2172 10.7886 22.0475 10.3396 21.7647 9.98462C22.1115 9.44825 22.3785 8.8605 22.5547 8.23918C23.1686 8.56237 23.72 9.00812 24.1737 9.56081C24.3382 9.76131 24.6342 9.79037 24.8347 9.62581C25.0352 9.46125 25.0643 9.16531 24.8998 8.96475C24.306 8.24137 23.5702 7.67281 22.749 7.28581C22.7828 7.01762 22.8012 6.74556 22.8012 6.47031C22.8012 2.90262 19.8986 0 16.3308 0C12.763 0 9.86042 2.90262 9.86042 6.47037C9.86042 7.44137 10.0809 8.40418 10.4987 9.27368C9.18786 11.2176 9.07186 13.783 10.2655 15.8457L5.95592 20.1553C5.77248 20.3388 5.77248 20.6361 5.95592 20.8196C6.13936 21.003 6.43673 21.003 6.62017 20.8196L11.1931 16.2467C11.3514 16.0884 11.376 15.8405 11.2519 15.6542C9.86985 13.5785 10.1487 10.79 11.915 9.02381C13.2163 7.7225 15.0977 7.21443 16.8456 7.62462C16.2264 8.00893 15.6793 8.49893 15.2304 9.06968C14.3959 9.16112 13.6181 9.53206 13.0207 10.1294C11.5793 11.5708 11.5793 13.9161 13.0207 15.3575C13.5602 15.897 14.2332 16.2473 14.9775 16.3801C15.0364 16.4662 15.0966 16.5517 15.16 16.6354C15.5369 17.1329 15.9894 17.5698 16.4945 17.9322C15.1914 18.1477 13.8389 17.8687 12.7234 17.126C12.5371 17.002 12.2892 17.0265 12.131 17.1847L7.82648 21.4892C7.64304 21.6727 7.64304 21.9701 7.82648 22.1535L8.84392 23.171C9.10123 23.4179 9.10123 23.8621 8.84386 24.1089C8.59698 24.3662 8.15273 24.3662 7.90592 24.1089L6.88848 23.0914C6.70504 22.9081 6.40767 22.9081 6.22423 23.0914L5.00573 24.3099C4.82379 24.4849 4.82379 24.7992 5.00573 24.9742L6.02311 25.9916C6.28173 26.2502 6.28173 26.671 6.02317 26.9295C5.76454 27.1882 5.34379 27.1881 5.08523 26.9295L4.06779 25.9121C3.88436 25.7287 3.58698 25.7287 3.40355 25.9121L2.07086 27.2447C1.81223 27.5034 1.39148 27.5033 1.13292 27.2448C0.874297 26.9862 0.874297 26.5654 1.13292 26.3068L5.29167 22.1481C5.47511 21.9646 5.47511 21.6672 5.29167 21.4837C5.10823 21.3004 4.81086 21.3004 4.62742 21.4837L0.468609 25.6426C-0.156203 26.2674 -0.156203 27.2841 0.468609 27.909C1.09348 28.5338 2.11017 28.5338 2.73505 27.909L3.73561 26.9085L4.42098 27.5939C5.04579 28.2186 6.06254 28.2187 6.68742 27.5938C7.31223 26.969 7.31223 25.9522 6.68742 25.3273L6.00211 24.6421L6.55636 24.0878L7.24167 24.7731C7.83823 25.3949 8.9116 25.3948 9.50817 24.7731C10.1299 24.1766 10.1299 23.1031 9.50817 22.5067L8.82286 21.8213L12.532 18.1122C14.0854 19.0108 15.9676 19.1912 17.6735 18.598C17.7811 18.6442 17.8896 18.6882 17.9997 18.7281ZM20.1397 10.1386C20.2422 10.1386 20.3411 10.1534 20.4357 10.1789C20.0298 10.6282 19.5478 11.0132 19.0034 11.3135C19.003 11.3011 19.0015 11.2891 19.0015 11.2766C19.0015 10.6491 19.5121 10.1386 20.1397 10.1386ZM21.2778 11.2767C21.2778 11.9042 20.7672 12.4148 20.1397 12.4148C19.8664 12.4148 19.6154 12.3179 19.419 12.1567C20.0842 11.7957 20.6713 11.3275 21.1612 10.778C21.235 10.9288 21.2778 11.0977 21.2778 11.2767ZM11.2507 8.3595C11.2214 8.38881 11.1936 8.41912 11.165 8.44893C10.925 7.82068 10.7997 7.14793 10.7997 6.47043C10.7997 3.42062 13.2809 0.939437 16.3307 0.939437C19.3805 0.939437 21.8617 3.42062 21.8617 6.47043C21.8617 6.62918 21.8542 6.78662 21.8409 6.94281C21.2839 6.78093 20.7005 6.69612 20.1052 6.69612C19.3918 6.69612 18.7064 6.81762 18.068 7.04037C15.7545 6.05412 13.0382 6.57193 11.2507 8.3595ZM14.511 10.2251C14.3157 10.6324 14.1637 11.0643 14.0609 11.5147C13.8273 11.4094 13.601 11.2887 13.3837 11.1516C13.4726 11.0261 13.5725 10.906 13.6849 10.7936C13.9258 10.5527 14.2061 10.3611 14.511 10.2251ZM13.6849 14.6931C12.9581 13.9663 12.7234 12.9314 12.9794 12.0049C13.2799 12.1873 13.5942 12.3445 13.9202 12.4754C13.9108 12.6144 13.9056 12.7546 13.9056 12.8959C13.9056 13.6898 14.0539 14.4597 14.339 15.1786C14.1009 15.0519 13.8811 14.8893 13.6849 14.6931Z" fill="#466B6F"/>
<path d="M25.9152 10.7267C25.8245 10.4836 25.5539 10.3603 25.3109 10.4511C25.0679 10.5418 24.9445 10.8124 25.0352 11.0555C25.2547 11.643 25.3661 12.2623 25.3661 12.8959C25.3661 15.1796 23.9084 17.1896 21.7389 17.8975C21.5456 17.9606 21.4149 18.1408 21.4149 18.344V20.952L20.0844 21.9838C19.8444 22.1601 19.8445 22.5498 20.0844 22.7261L21.1181 23.5278L20.0843 24.3295C19.8444 24.5058 19.8444 24.8955 20.0843 25.0718L21.1181 25.8735L20.0843 26.6752C19.8444 26.8515 19.8444 27.2412 20.0843 27.4175L21.4148 28.4493V29.5765L20.1223 30.8568L18.9394 29.5875V25.7137C18.9394 25.4543 18.7291 25.244 18.4697 25.244C18.2103 25.244 18 25.4543 18 25.7137V29.7724C18 29.8912 18.0451 30.0056 18.1261 30.0926L19.7653 31.8517C19.9372 32.0438 20.26 32.0503 20.4395 31.8651L22.2152 30.1061C22.3042 30.0179 22.3543 29.8977 22.3543 29.7724V28.2193C22.3543 28.0742 22.2872 27.9372 22.1724 27.8482L21.1387 27.0465L22.1724 26.2448C22.4124 26.0685 22.4123 25.6788 22.1724 25.5025L21.1387 24.7008L22.1724 23.899C22.4124 23.7227 22.4123 23.333 22.1724 23.1567L21.1387 22.355L22.1724 21.5533C22.2872 21.4643 22.3543 21.3273 22.3543 21.1822V18.675C24.7315 17.7526 26.3055 15.472 26.3055 12.8959C26.3054 12.1497 26.1742 11.4198 25.9152 10.7267Z" fill="#466B6F"/>
</svg>
