<svg width="23" height="24" viewBox="0 0 23 24" fill="none" xmlns="http://www.w3.org/2000/svg">
<path d="M22.7222 10.5382L12.0431 0.227438C11.732 -0.0758128 11.2358 -0.0758128 10.9247 0.227438L0.245983 10.5378C0.0887712 10.6895 0 10.8986 0 11.1171C0 11.5618 0.36052 11.9223 0.805181 11.9223H2.22431V23.1948C2.22431 23.6395 2.58478 24 3.02949 24H8.66576C9.11047 24 9.47094 23.6395 9.47094 23.1948V16.7534H13.4968V23.1948C13.4968 23.6395 13.8573 24 14.302 24H19.9383C20.383 24 20.7435 23.6395 20.7435 23.1948V11.9223H22.1626C22.3809 11.9223 22.5898 11.8337 22.7415 11.6767C23.0506 11.3569 23.0419 10.8472 22.7222 10.5382ZM20.7435 11.1171C20.2988 11.1171 19.9383 11.4776 19.9383 11.9223V23.1948H14.302V16.7534C14.302 16.3087 13.9416 15.9482 13.4968 15.9482H9.47094C9.02623 15.9482 8.66576 16.3087 8.66576 16.7534V23.1948H3.02949V11.9223C3.02949 11.4776 2.66902 11.1171 2.22431 11.1171H0.805181L11.4839 0.806766L22.1666 11.1171H20.7435Z" fill="#466B6F"/>
</svg>
