<svg width="126" height="43" viewBox="0 0 126 43" fill="none" xmlns="http://www.w3.org/2000/svg">
<path fill-rule="evenodd" clip-rule="evenodd" d="M22.0199 0L32.4996 10.5053L22.0199 20.9843L11.541 10.4804L22.0199 0ZM10.479 11.6685L20.9565 22.1745L10.479 32.6527L0 22.1467L10.479 11.6685ZM33.5295 11.5224L44.0085 22.0285L33.5295 32.5067L23.0506 22.0007L33.5295 11.5224Z" fill="#466B6F"/>
<path fill-rule="evenodd" clip-rule="evenodd" d="M64.4987 31.0038L60.9787 22.5178C63.2786 21.4672 64.4126 19.9344 64.4126 17.3802C64.4126 15.4784 63.6462 13.7476 62.0293 12.7233C60.5805 11.7589 58.7065 11.5331 57.0049 11.5331H47.0986V31.0038H53.1444V23.5698H55.017L57.8568 31.0045L64.4987 31.0038ZM53.1444 19.3959V15.6771H55.5576C56.1231 15.6771 56.7478 15.6771 57.2599 15.9329C57.8568 16.2448 58.1966 16.8688 58.1966 17.5226C58.1966 19.1951 56.636 19.3952 55.3297 19.3952L53.1444 19.3959ZM100.419 31.0038H106.519L100.419 11.5331H94.1172L88.0714 31.0038H92.9234L94.1172 27.1725H99.3104L100.419 31.0038ZM95.1094 22.916L96.7006 17.2677L98.289 22.916H95.1094ZM125.181 26.2366H117.546V11.5331H111.529V31.0038H125.181V26.2366ZM84.1112 26.3491H75.341V23.198H82.4388V18.856H75.341V16.019H84.1112V11.5331H69.4939V31.0038H84.1112V26.3491Z" fill="#466B6F"/>
<path fill-rule="evenodd" clip-rule="evenodd" d="M14.8096 34.7924C14.8096 30.6996 18.1273 27.3847 22.2186 27.3847C26.3106 27.3847 29.6263 30.6996 29.6263 34.7924C29.6263 38.8808 26.3106 42.2 22.2186 42.2C18.1281 42.2 14.8096 38.8808 14.8096 34.7924Z" fill="#466B6F"/>
<path fill-rule="evenodd" clip-rule="evenodd" d="M113.263 35.1329C114.025 35.6991 114.406 36.4249 114.406 37.306C114.406 38.2605 113.969 39.0546 113.098 39.6879C112.073 40.4308 110.614 40.8019 108.719 40.8019C106.947 40.8019 105.556 40.4792 104.541 39.8268C103.637 39.1992 103.185 38.4093 103.185 37.4506C103.185 36.5866 103.572 35.8451 104.346 35.2305C105.339 34.4405 106.807 34.0452 108.749 34.0452C110.78 34.0452 112.284 34.4078 113.263 35.1329ZM97.5434 37.15C98.2735 37.15 98.8511 37.0681 99.2757 36.9064C99.7044 36.7433 99.9181 36.4499 99.9181 36.0275C99.9181 35.5709 99.6204 35.2611 99.0264 35.0951C98.7066 35.0075 98.2792 34.9655 97.7464 34.9655H93.9386V37.1493H97.5434V37.15ZM111.882 39.2078C112.5 38.6608 112.809 38.0311 112.809 37.3188C112.809 36.566 112.453 35.9641 111.742 35.5047C111.037 35.0453 110.069 34.8173 108.844 34.8159C107.652 34.8159 106.681 35.0438 105.927 35.5004C105.175 35.9541 104.8 36.6215 104.8 37.509C104.8 38.2142 105.121 38.8125 105.763 39.3011C106.411 39.7854 107.459 40.0276 108.906 40.0276C110.28 40.0269 111.272 39.7541 111.882 39.2078ZM92.3794 34.219H97.7072C98.5848 34.219 99.3098 34.2902 99.8775 34.4348C100.96 34.7062 101.499 35.2112 101.499 35.9442C101.499 36.3281 101.356 36.64 101.069 36.8858C100.787 37.1294 100.389 37.3238 99.8768 37.4713C100.261 38.0496 101.939 40.6138 101.939 40.6138H100.44C100.388 40.5611 99.0264 38.462 98.6645 37.8609C98.3668 37.7847 98.1261 37.8723 97.4893 37.8723H93.9393V40.6145H92.3801V34.219H92.3794ZM117.278 38.5539C117.316 38.9186 117.469 39.2106 117.74 39.4357C118.259 39.8617 119.17 40.0718 120.476 40.0718C121.061 40.0718 121.593 40.0262 122.073 39.9357C123.006 39.7548 123.467 39.4307 123.47 38.9678C123.47 38.6187 123.274 38.3723 122.88 38.2248C122.485 38.0788 121.862 37.9506 121.018 37.8452L119.457 37.6479C118.437 37.5225 117.719 37.3808 117.297 37.2262C116.564 36.962 116.199 36.5596 116.199 36.031C116.199 35.4534 116.557 34.9833 117.272 34.6136C117.988 34.2475 119.001 34.0616 120.312 34.0616C121.519 34.0616 122.542 34.2247 123.383 34.5517C124.229 34.8715 124.655 35.3893 124.655 36.0987H123.188C123.109 35.7575 122.942 35.4961 122.684 35.3124C122.21 34.9783 121.403 34.8116 120.264 34.8116C119.346 34.8116 118.685 34.9171 118.283 35.1329C117.88 35.3487 117.681 35.5987 117.681 35.8829C117.681 36.1956 117.916 36.4256 118.384 36.5717C118.694 36.6635 119.39 36.7775 120.477 36.9178L122.091 37.1223C122.869 37.2213 123.469 37.3559 123.893 37.5282C124.624 37.8274 124.99 38.2598 124.99 38.8289C124.99 39.5369 124.526 40.0433 123.596 40.3481C122.671 40.653 121.594 40.8061 120.367 40.8061C118.936 40.8061 117.815 40.6017 117.005 40.1957C116.195 39.794 115.799 39.2455 115.814 38.5553H117.278V38.5539ZM82.2937 34.2204V38.1757C82.2937 38.6387 82.4511 39.0254 82.7623 39.3317C83.2282 39.7976 84.0117 40.0298 85.115 40.0298C86.4355 40.0298 87.3351 39.779 87.8095 39.2755C88.0652 39.0027 88.1934 38.6373 88.1934 38.175V34.2197H89.7768V37.8132C89.7768 38.5995 89.5845 39.2042 89.2048 39.6287C88.5054 40.4008 87.1834 40.7862 85.2403 40.7862C83.2958 40.7862 81.9781 40.4008 81.2822 39.6287C80.9012 39.2042 80.7103 38.5995 80.7103 37.8132V34.2197H82.2937V34.2204ZM75.8982 34.4056C77.0414 34.7397 77.743 35.3252 78.0001 36.16H76.4545C76.2664 35.6927 75.8768 35.353 75.287 35.1414C74.6973 34.9256 73.9515 34.8202 73.0541 34.8173C71.9899 34.8173 71.0896 35.0396 70.3595 35.4862C69.6323 35.9271 69.2705 36.5909 69.2705 37.4698C69.2705 38.2291 69.5696 38.8502 70.1708 39.3282C70.7734 39.804 71.7527 40.0419 73.1089 40.0419C74.1481 40.0419 75.0093 39.8752 75.6866 39.5411C76.3711 39.2042 76.7201 38.6622 76.7372 37.9136H73.1338V37.1956H78.1867V40.6152H77.1852L76.8085 39.7933C76.2799 40.1174 75.8141 40.3403 75.4046 40.465C74.7215 40.6793 73.8518 40.7862 72.7976 40.7862C71.4329 40.7862 70.2605 40.5412 69.2783 40.0504C68.2071 39.4357 67.6728 38.591 67.6728 37.5169C67.6728 36.4456 68.1957 35.5944 69.2391 34.9612C70.2313 34.3572 71.5163 34.0559 73.0954 34.0559C74.1766 34.0559 75.1097 34.1727 75.8982 34.4056ZM57.5643 34.2204H65.9556V35.0068H59.0843V36.9463H65.4385V37.6878H59.0843V39.8567H66.0738V40.616H57.5643V34.2204ZM47.7306 38.5539C47.7677 38.9186 47.9215 39.2106 48.1915 39.4357C48.71 39.8617 49.6217 40.0718 50.9266 40.0718C51.5121 40.0718 52.0435 40.0262 52.525 39.9357C53.4559 39.7548 53.9196 39.4307 53.921 38.9678C53.921 38.6187 53.7251 38.3723 53.3312 38.2248C52.9352 38.0788 52.3127 37.9506 51.4679 37.8452L49.9074 37.6479C48.8881 37.5225 48.1687 37.3808 47.7442 37.2262C47.0134 36.962 46.6487 36.5596 46.6487 36.031C46.6487 35.4534 47.0056 34.9833 47.7214 34.6136C48.4379 34.2475 49.4508 34.0616 50.7607 34.0616C51.968 34.0616 52.9915 34.2247 53.832 34.5517C54.6789 34.8715 55.102 35.3893 55.102 36.0987H53.6375C53.5592 35.7575 53.3911 35.4961 53.1347 35.3124C52.6603 34.9783 51.8526 34.8116 50.7144 34.8116C49.7955 34.8116 49.1352 34.9171 48.7328 35.1329C48.3297 35.3487 48.1295 35.5987 48.1295 35.8829C48.1295 36.1956 48.3653 36.4256 48.834 36.5717C49.1424 36.6635 49.8397 36.7775 50.9259 36.9178L52.5406 37.1223C53.3184 37.2213 53.9189 37.3559 54.342 37.5282C55.0735 37.8274 55.4403 38.2598 55.4403 38.8289C55.4403 39.5369 54.9745 40.0433 54.0457 40.3481C53.1204 40.653 52.0427 40.8061 50.8176 40.8061C49.3853 40.8061 48.2641 40.6017 47.455 40.1957C46.6451 39.794 46.2491 39.2455 46.2641 38.5553H47.7306V38.5539Z" fill="#466B6F"/>
</svg>
