<svg width="51" height="49" viewBox="0 0 51 49" fill="none" xmlns="http://www.w3.org/2000/svg">
<path d="M48.5871 20.0558C49.4288 14.3786 45.2686 8.87636 39.2948 7.76585C33.3209 6.65533 27.796 10.3572 26.9543 16.0344C26.1126 21.7116 30.2728 27.2138 36.2467 28.3243C37.4744 28.5526 38.6798 28.5676 39.8331 28.4137C35.432 41.2284 23.277 47.7604 34.4127 42.5948C46.7606 36.8667 48.5525 20.3722 48.5845 20.0698C48.5852 20.0651 48.5864 20.061 48.5871 20.0558Z" fill="#8EA5A5"/>
<path d="M25.6398 16.2342C26.4816 10.557 22.3213 5.05482 16.3474 3.94431C10.3735 2.83379 4.84863 6.5356 4.00691 12.2128C3.16518 17.89 7.32551 23.3922 13.2994 24.5027C14.5272 24.7309 15.7325 24.746 16.8858 24.5921C12.4847 37.4066 0.329663 43.9387 11.4654 38.7731C23.8133 33.045 25.6053 16.5506 25.6372 16.2482C25.6379 16.2435 25.6391 16.2394 25.6398 16.2342Z" fill="#8EA5A5"/>
</svg>
