<svg width="160" height="136" viewBox="0 0 160 136" fill="none" xmlns="http://www.w3.org/2000/svg">
<rect width="4" height="4" fill="#D6DDCF"/>
<rect x="12" width="4" height="4" fill="#D6DDCF"/>
<rect x="24" width="4" height="4" fill="#D6DDCF"/>
<rect x="36" width="4" height="4" fill="#D6DDCF"/>
<rect x="48" width="4" height="4" fill="#D6DDCF"/>
<rect x="60" width="4" height="4" fill="#D6DDCF"/>
<rect x="72" width="4" height="4" fill="#D6DDCF"/>
<rect y="12" width="4" height="4" fill="#D6DDCF"/>
<rect x="12" y="12" width="4" height="4" fill="#D6DDCF"/>
<rect x="24" y="12" width="4" height="4" fill="#D6DDCF"/>
<rect x="36" y="12" width="4" height="4" fill="#D6DDCF"/>
<rect x="48" y="12" width="4" height="4" fill="#D6DDCF"/>
<rect x="60" y="12" width="4" height="4" fill="#D6DDCF"/>
<rect x="72" y="12" width="4" height="4" fill="#D6DDCF"/>
<rect y="24" width="4" height="4" fill="#D6DDCF"/>
<rect x="12" y="24" width="4" height="4" fill="#D6DDCF"/>
<rect x="24" y="24" width="4" height="4" fill="#D6DDCF"/>
<rect x="36" y="24" width="4" height="4" fill="#D6DDCF"/>
<rect x="48" y="24" width="4" height="4" fill="#D6DDCF"/>
<rect x="60" y="24" width="4" height="4" fill="#D6DDCF"/>
<rect x="72" y="24" width="4" height="4" fill="#D6DDCF"/>
<rect y="36" width="4" height="4" fill="#D6DDCF"/>
<rect x="12" y="36" width="4" height="4" fill="#D6DDCF"/>
<rect x="24" y="36" width="4" height="4" fill="#D6DDCF"/>
<rect x="36" y="36" width="4" height="4" fill="#D6DDCF"/>
<rect x="48" y="36" width="4" height="4" fill="#D6DDCF"/>
<rect x="60" y="36" width="4" height="4" fill="#D6DDCF"/>
<rect x="72" y="36" width="4" height="4" fill="#D6DDCF"/>
<rect y="48" width="4" height="4" fill="#D6DDCF"/>
<rect x="12" y="48" width="4" height="4" fill="#D6DDCF"/>
<rect x="24" y="48" width="4" height="4" fill="#D6DDCF"/>
<rect x="36" y="48" width="4" height="4" fill="#D6DDCF"/>
<rect x="48" y="48" width="4" height="4" fill="#D6DDCF"/>
<rect x="60" y="48" width="4" height="4" fill="#D6DDCF"/>
<rect x="72" y="48" width="4" height="4" fill="#D6DDCF"/>
<rect y="60" width="4" height="4" fill="#D6DDCF"/>
<rect x="12" y="60" width="4" height="4" fill="#D6DDCF"/>
<rect x="24" y="60" width="4" height="4" fill="#D6DDCF"/>
<rect x="36" y="60" width="4" height="4" fill="#D6DDCF"/>
<rect x="48" y="60" width="4" height="4" fill="#D6DDCF"/>
<rect x="60" y="60" width="4" height="4" fill="#D6DDCF"/>
<rect x="72" y="60" width="4" height="4" fill="#D6DDCF"/>
<rect y="72" width="4" height="4" fill="#D6DDCF"/>
<rect x="12" y="72" width="4" height="4" fill="#D6DDCF"/>
<rect x="24" y="72" width="4" height="4" fill="#D6DDCF"/>
<rect x="36" y="72" width="4" height="4" fill="#D6DDCF"/>
<rect x="48" y="72" width="4" height="4" fill="#D6DDCF"/>
<rect x="60" y="72" width="4" height="4" fill="#D6DDCF"/>
<rect x="72" y="72" width="4" height="4" fill="#D6DDCF"/>
<rect y="84" width="4" height="4" fill="#D6DDCF"/>
<rect x="12" y="84" width="4" height="4" fill="#D6DDCF"/>
<rect x="24" y="84" width="4" height="4" fill="#D6DDCF"/>
<rect x="36" y="84" width="4" height="4" fill="#D6DDCF"/>
<rect x="48" y="84" width="4" height="4" fill="#D6DDCF"/>
<rect x="60" y="84" width="4" height="4" fill="#D6DDCF"/>
<rect x="72" y="84" width="4" height="4" fill="#D6DDCF"/>
<rect y="96" width="4" height="4" fill="#D6DDCF"/>
<rect x="12" y="96" width="4" height="4" fill="#D6DDCF"/>
<rect x="24" y="96" width="4" height="4" fill="#D6DDCF"/>
<rect x="36" y="96" width="4" height="4" fill="#D6DDCF"/>
<rect x="48" y="96" width="4" height="4" fill="#D6DDCF"/>
<rect x="60" y="96" width="4" height="4" fill="#D6DDCF"/>
<rect x="72" y="96" width="4" height="4" fill="#D6DDCF"/>
<rect y="108" width="4" height="4" fill="#D6DDCF"/>
<rect x="12" y="108" width="4" height="4" fill="#D6DDCF"/>
<rect x="24" y="108" width="4" height="4" fill="#D6DDCF"/>
<rect x="36" y="108" width="4" height="4" fill="#D6DDCF"/>
<rect x="48" y="108" width="4" height="4" fill="#D6DDCF"/>
<rect x="60" y="108" width="4" height="4" fill="#D6DDCF"/>
<rect x="72" y="108" width="4" height="4" fill="#D6DDCF"/>
<rect y="120" width="4" height="4" fill="#D6DDCF"/>
<rect x="12" y="120" width="4" height="4" fill="#D6DDCF"/>
<rect x="24" y="120" width="4" height="4" fill="#D6DDCF"/>
<rect x="36" y="120" width="4" height="4" fill="#D6DDCF"/>
<rect x="48" y="120" width="4" height="4" fill="#D6DDCF"/>
<rect x="60" y="120" width="4" height="4" fill="#D6DDCF"/>
<rect x="72" y="120" width="4" height="4" fill="#D6DDCF"/>
<rect y="132" width="4" height="4" fill="#D6DDCF"/>
<rect x="12" y="132" width="4" height="4" fill="#D6DDCF"/>
<rect x="24" y="132" width="4" height="4" fill="#D6DDCF"/>
<rect x="36" y="132" width="4" height="4" fill="#D6DDCF"/>
<rect x="48" y="132" width="4" height="4" fill="#D6DDCF"/>
<rect x="60" y="132" width="4" height="4" fill="#D6DDCF"/>
<rect x="72" y="132" width="4" height="4" fill="#D6DDCF"/>
<rect x="84" width="4" height="4" fill="#D6DDCF"/>
<rect x="96" width="4" height="4" fill="#D6DDCF"/>
<rect x="108" width="4" height="4" fill="#D6DDCF"/>
<rect x="120" width="4" height="4" fill="#D6DDCF"/>
<rect x="132" width="4" height="4" fill="#D6DDCF"/>
<rect x="144" width="4" height="4" fill="#D6DDCF"/>
<rect x="156" width="4" height="4" fill="#D6DDCF"/>
<rect x="84" y="12" width="4" height="4" fill="#D6DDCF"/>
<rect x="96" y="12" width="4" height="4" fill="#D6DDCF"/>
<rect x="108" y="12" width="4" height="4" fill="#D6DDCF"/>
<rect x="120" y="12" width="4" height="4" fill="#D6DDCF"/>
<rect x="132" y="12" width="4" height="4" fill="#D6DDCF"/>
<rect x="144" y="12" width="4" height="4" fill="#D6DDCF"/>
<rect x="156" y="12" width="4" height="4" fill="#D6DDCF"/>
<rect x="84" y="24" width="4" height="4" fill="#D6DDCF"/>
<rect x="96" y="24" width="4" height="4" fill="#D6DDCF"/>
<rect x="108" y="24" width="4" height="4" fill="#D6DDCF"/>
<rect x="120" y="24" width="4" height="4" fill="#D6DDCF"/>
<rect x="132" y="24" width="4" height="4" fill="#D6DDCF"/>
<rect x="144" y="24" width="4" height="4" fill="#D6DDCF"/>
<rect x="156" y="24" width="4" height="4" fill="#D6DDCF"/>
<rect x="84" y="36" width="4" height="4" fill="#D6DDCF"/>
<rect x="96" y="36" width="4" height="4" fill="#D6DDCF"/>
<rect x="108" y="36" width="4" height="4" fill="#D6DDCF"/>
<rect x="120" y="36" width="4" height="4" fill="#D6DDCF"/>
<rect x="132" y="36" width="4" height="4" fill="#D6DDCF"/>
<rect x="144" y="36" width="4" height="4" fill="#D6DDCF"/>
<rect x="156" y="36" width="4" height="4" fill="#D6DDCF"/>
<rect x="84" y="48" width="4" height="4" fill="#D6DDCF"/>
<rect x="96" y="48" width="4" height="4" fill="#D6DDCF"/>
<rect x="108" y="48" width="4" height="4" fill="#D6DDCF"/>
<rect x="120" y="48" width="4" height="4" fill="#D6DDCF"/>
<rect x="132" y="48" width="4" height="4" fill="#D6DDCF"/>
<rect x="144" y="48" width="4" height="4" fill="#D6DDCF"/>
<rect x="156" y="48" width="4" height="4" fill="#D6DDCF"/>
<rect x="84" y="60" width="4" height="4" fill="#D6DDCF"/>
<rect x="96" y="60" width="4" height="4" fill="#D6DDCF"/>
<rect x="108" y="60" width="4" height="4" fill="#D6DDCF"/>
<rect x="120" y="60" width="4" height="4" fill="#D6DDCF"/>
<rect x="132" y="60" width="4" height="4" fill="#D6DDCF"/>
<rect x="144" y="60" width="4" height="4" fill="#D6DDCF"/>
<rect x="156" y="60" width="4" height="4" fill="#D6DDCF"/>
<rect x="84" y="72" width="4" height="4" fill="#D6DDCF"/>
<rect x="96" y="72" width="4" height="4" fill="#D6DDCF"/>
<rect x="108" y="72" width="4" height="4" fill="#D6DDCF"/>
<rect x="120" y="72" width="4" height="4" fill="#D6DDCF"/>
<rect x="132" y="72" width="4" height="4" fill="#D6DDCF"/>
<rect x="144" y="72" width="4" height="4" fill="#D6DDCF"/>
<rect x="156" y="72" width="4" height="4" fill="#D6DDCF"/>
<rect x="84" y="84" width="4" height="4" fill="#D6DDCF"/>
<rect x="96" y="84" width="4" height="4" fill="#D6DDCF"/>
<rect x="108" y="84" width="4" height="4" fill="#D6DDCF"/>
<rect x="120" y="84" width="4" height="4" fill="#D6DDCF"/>
<rect x="132" y="84" width="4" height="4" fill="#D6DDCF"/>
<rect x="144" y="84" width="4" height="4" fill="#D6DDCF"/>
<rect x="156" y="84" width="4" height="4" fill="#D6DDCF"/>
<rect x="84" y="96" width="4" height="4" fill="#D6DDCF"/>
<rect x="96" y="96" width="4" height="4" fill="#D6DDCF"/>
<rect x="108" y="96" width="4" height="4" fill="#D6DDCF"/>
<rect x="120" y="96" width="4" height="4" fill="#D6DDCF"/>
<rect x="132" y="96" width="4" height="4" fill="#D6DDCF"/>
<rect x="144" y="96" width="4" height="4" fill="#D6DDCF"/>
<rect x="156" y="96" width="4" height="4" fill="#D6DDCF"/>
<rect x="84" y="108" width="4" height="4" fill="#D6DDCF"/>
<rect x="96" y="108" width="4" height="4" fill="#D6DDCF"/>
<rect x="108" y="108" width="4" height="4" fill="#D6DDCF"/>
<rect x="120" y="108" width="4" height="4" fill="#D6DDCF"/>
<rect x="132" y="108" width="4" height="4" fill="#D6DDCF"/>
<rect x="144" y="108" width="4" height="4" fill="#D6DDCF"/>
<rect x="156" y="108" width="4" height="4" fill="#D6DDCF"/>
<rect x="84" y="120" width="4" height="4" fill="#D6DDCF"/>
<rect x="96" y="120" width="4" height="4" fill="#D6DDCF"/>
<rect x="108" y="120" width="4" height="4" fill="#D6DDCF"/>
<rect x="120" y="120" width="4" height="4" fill="#D6DDCF"/>
<rect x="132" y="120" width="4" height="4" fill="#D6DDCF"/>
<rect x="144" y="120" width="4" height="4" fill="#D6DDCF"/>
<rect x="156" y="120" width="4" height="4" fill="#D6DDCF"/>
<rect x="84" y="132" width="4" height="4" fill="#D6DDCF"/>
<rect x="96" y="132" width="4" height="4" fill="#D6DDCF"/>
<rect x="108" y="132" width="4" height="4" fill="#D6DDCF"/>
<rect x="120" y="132" width="4" height="4" fill="#D6DDCF"/>
<rect x="132" y="132" width="4" height="4" fill="#D6DDCF"/>
<rect x="144" y="132" width="4" height="4" fill="#D6DDCF"/>
<rect x="156" y="132" width="4" height="4" fill="#D6DDCF"/>
</svg>
