<svg width="122" height="29" viewBox="0 0 122 29" fill="none" xmlns="http://www.w3.org/2000/svg">
<path fill-rule="evenodd" clip-rule="evenodd" d="M42.2262 20.4862C41.2856 21.4261 40.7136 22.5736 40.8351 23.7954C40.96 25.9689 43.4105 26.8693 44.9669 27.3607C50.5287 28.0542 55.5984 25.399 59.5664 20.8569C59.8517 20.7736 60.0155 21.0186 60.1835 21.1804C59.2012 23.0609 57.0736 24.577 55.354 25.8842C53.2715 27.1782 50.796 28.2132 48.231 28.4735C47.4573 28.5478 46.6784 28.5478 45.9048 28.4735C45.0821 28.3891 44.2725 28.2066 43.4931 27.93C41.7757 27.2809 39.6494 25.6801 39.6494 23.6343C39.8153 22.5334 39.9792 21.4671 40.7525 20.691L41.7354 19.5851C44.9676 16.7244 49.1001 15.3381 52.8987 14.3947C51.9636 13.8657 50.6544 13.4548 50.3656 12.224C50.3656 8.54615 54.1691 7.35979 56.7466 5.84993C62.4702 3.23006 69.2573 2.37135 75.4779 2.6997C76.7024 3.06484 77.8916 3.1058 78.7086 4.29772C78.9551 6.13454 76.785 7.11474 75.6841 8.22127C70.9386 11.4895 65.1303 13.5762 58.9923 12.9216C58.2183 12.5565 57.4797 12.267 57.236 11.368C57.1166 10.2657 58.1773 9.32226 59.0798 8.9953C60.4279 8.22128 62.146 8.83355 63.4136 8.50381C63.576 8.66833 63.8218 8.83355 63.6982 9.07582L63.3324 9.48608C61.5261 9.61034 59.5261 9.44513 58.3009 10.7551C58.0544 11.6568 59.0798 11.8206 59.5664 12.0227C65.4594 12.3121 73.0232 10.0588 77.6451 4.98844C77.725 4.29703 76.9468 4.04851 76.4574 3.88538C67.585 3.26963 58.7091 4.5393 52.0421 10.0588C51.5082 10.6745 51.2243 11.6568 51.6325 12.4329C54.0455 14.5974 56.2551 13.1292 59.0791 13.4166L59.2838 13.6158L58.5834 14.1878C53.3111 15.1701 48.0331 16.0691 43.7 19.2991L42.2262 20.4862ZM122 20.0509V20.6264C121.962 20.8308 121.871 21.0213 121.734 21.1783C109.054 28.7866 93.5546 22.0412 79.5229 25.1074C78.8718 25.19 79.2029 26.7429 78.338 25.9654C77.8902 25.6371 78.1769 25.274 78.2172 24.9019C81.0009 23.0602 83.8616 23.3039 87.1736 23.0207C97.8495 22.8992 110.407 26.7429 120.549 20.8562C120.915 20.6049 121.038 20.1578 120.833 19.7858C116.826 18.1121 113.063 16.5182 109.26 14.394C106.398 16.4773 103.739 19.4213 100.016 19.5844C99.4045 19.5039 98.9505 18.8472 98.7485 18.3162C97.3171 19.3429 95.7225 19.9954 93.8378 19.9954C92.5293 17.992 89.917 21.5511 89.0125 18.8104C88.9743 17.6241 90.1607 16.6425 90.9743 16.0691C90.5689 16.0691 89.9531 15.5415 89.7095 16.1482C87.9913 18.0302 86.031 20.4466 83.4506 19.7872L82.9626 19.0131C82.0581 19.7122 81.1633 20.5681 79.8929 20.0787C79.1175 19.749 78.9141 18.7667 79.3237 18.1135C80.5059 16.0691 82.7176 14.6835 85.0903 14.6835C85.5797 15.2159 86.2711 14.3135 86.6821 14.8862C86.2711 16.3169 83.9026 17.0527 84.1074 18.8916C84.9251 19.1777 85.7803 18.3974 86.5613 18.1142L90.1989 14.3135C90.7736 14.1892 90.3238 14.8473 90.6938 14.9653C91.7948 15.1701 92.6966 14.5592 93.8378 15.1701C92.7778 16.3162 90.6501 16.8889 90.1211 18.7285C91.1436 19.0131 92.1211 18.2002 92.9409 17.9087C94.2071 15.5415 96.7846 15.0528 98.9498 14.8015C100.385 11.7353 103.534 8.95503 106.684 7.8117C109.179 4.57956 112.655 1.9236 116.701 2.52893L116.907 4.00477C116.338 8.09424 113.025 10.9175 110.24 13.7012C114.001 15.9448 117.438 17.4214 121.403 19.0131C121.712 19.2582 121.927 19.6469 122 20.0509ZM115.846 4.08738C115.029 7.72632 112.039 10.6336 109.261 13.0008C108.564 12.8418 107.951 12.2233 107.5 11.7346C108.564 10.5489 109.789 9.07582 109.832 7.31883C109.588 6.95022 109.219 6.86553 108.852 6.82665C110.816 5.15435 113.027 3.31267 115.644 3.3932L115.846 4.08738ZM88.5231 4.16999C83.7804 5.64167 79.5229 8.83355 76.5837 12.9209C74.6178 14.9257 74.0444 18.3585 71.0615 19.0124C71.4315 17.7872 72.6588 16.8875 73.0232 15.6623C72.1652 13.8213 70.4867 16.3967 69.712 14.9646C67.9112 16.1913 66.931 18.8903 64.4729 19.2186C64.7999 17.7448 65.9862 16.6418 67.056 15.4575C65.7044 15.2513 64.148 15.0903 62.8395 15.1694C62.0217 16.5189 60.9964 18.1128 59.4845 18.8097C58.791 18.9312 58.0954 19.8316 57.4415 19.2186C58.0537 17.9913 59.2394 17.2943 59.7698 16.0684C59.4845 15.6213 59.0791 16.0684 58.7091 16.0684C56.4981 15.0521 54.0032 16.0698 52.2052 17.8268C51.7984 18.4807 51.141 19.422 51.8352 20.2016C53.2673 20.9367 55.1493 20.119 56.4578 19.7115C56.5807 20.0364 57.0722 20.4466 57.5227 20.4855C58.9132 20.364 59.8149 19.7483 60.9575 19.0124C62.634 18.3155 62.9214 15.2513 64.9644 16.2732C64.1466 17.1728 63.4906 18.151 63.4122 19.379C63.8204 20.9353 65.5801 19.8302 66.3556 19.7115L66.1508 20.2821C66.1931 20.5674 66.5194 20.6459 66.7637 20.6896C68.2757 19.2998 68.974 15.9032 71.6758 16.1475C70.8962 17.2936 69.3413 18.6077 70.2833 19.9947C70.8962 20.5265 71.5918 19.7865 72.1638 19.8705C72.0403 19.9538 72.0403 20.0801 72.0403 20.2016C72.2041 20.4855 72.5297 20.4855 72.8171 20.4855C74.1298 18.8097 74.7802 16.0684 77.2328 15.6623C77.6028 15.824 77.927 16.108 77.927 16.5613C76.9454 18.6077 75.2682 19.9947 73.7188 21.751C72.6574 23.0603 70.9365 24.7791 71.959 26.5812C73.1468 27.2344 74.1298 26.9109 75.4758 26.8679C76.0048 26.7429 76.742 26.5423 76.742 25.8835C75.5994 25.6378 73.884 26.2896 72.8171 26.0876C72.2881 25.7204 72.6963 25.2317 72.6574 24.7791C74.2082 22.162 77.6847 19.9163 78.8322 17.052C79.2772 16.108 78.5039 15.2513 77.9277 14.8015C82.6322 12.1844 89.3804 11.0008 90.8951 4.86279C90.6938 3.63824 89.3408 4.41434 88.5231 4.16999ZM89.7095 5.27514C88.9743 8.66833 84.9244 10.265 82.0588 11.6568L77.0731 13.9858C80.5066 9.64506 84.4357 6.01167 89.7095 5.27514ZM107.09 10.3858C106.968 9.40487 107.541 8.42328 108.485 8.09354C108.196 8.95503 107.912 9.77418 107.09 10.3858ZM105.908 11.4472C103.942 13.209 101.731 14.9264 99.7322 16.1475C100.347 12.9605 103.413 10.6738 106.028 9.20008C105.699 9.81583 105.783 10.753 105.908 11.4472ZM108.074 13.8213C105.986 15.5783 103.491 17.7872 100.711 18.6056C100.182 18.4383 99.9369 18.0753 99.9369 17.5387C102.226 16.1073 104.312 14.1483 106.521 12.4329C107.136 12.8418 107.296 13.7005 108.074 13.8213ZM84.5968 15.6623C83.6596 16.9687 82.1018 18.9722 80.3858 19.0957C80.1394 17.7448 81.8978 16.8875 82.8425 16.2732C83.3722 15.9448 83.9838 15.7838 84.5968 15.6623ZM96.786 18.3162C95.8898 18.4814 94.5757 19.379 93.9225 18.6063C94.8624 16.7653 96.7034 16.0691 98.543 15.865C99.1615 17.2943 97.6878 17.706 96.786 18.3162ZM57.7282 16.8445C56.5821 18.3592 54.4162 19.8316 52.8203 19.3783C53.066 17.9108 54.8633 17.009 56.2558 16.764L57.7282 16.8445Z" fill="#6A716C"/>
<path fill-rule="evenodd" clip-rule="evenodd" d="M43.1084 19.448C46.832 19.7306 49.529 19.8541 52.5168 22.3074C52.6792 22.962 51.8989 22.962 51.5324 22.8003C48.7938 20.7545 45.3159 20.1394 41.6347 20.6309L40.1616 20.8371C38.5268 20.6309 36.2373 21.6965 34.9274 20.347C33.6612 20.549 32.27 20.4685 31.3294 19.6521L30.4291 18.5477C28.5499 19.5286 26.5846 21.3675 24.332 20.2221C23.3546 20.6309 22.1252 21.0821 21.0228 20.6309C20.2051 19.7736 20.4508 18.876 20.8173 17.893C20.9416 17.5633 21.39 17.2808 21.1846 16.9913C18.7292 19.6091 15.6637 21.3279 12.1879 20.8371C11.4548 20.731 10.7521 20.4725 10.1251 20.0781C9.4981 19.6838 8.9607 19.1624 8.54754 18.5477C8.38441 17.9743 8.05606 17.4446 8.05606 16.7893L0.571317 23.087C0.326963 23.0057 0.0798317 22.8433 0 22.5948V22.3088L10.0178 13.6418C9.37143 13.5836 8.74287 13.3984 8.16813 13.0969C7.59338 12.7954 7.08374 12.3835 6.66837 11.8848C5.39801 10.1667 5.6854 7.50799 6.58716 5.71004C8.54754 2.31337 12.5162 0.55083 16.2759 0.387695C19.1818 0.712576 22.046 1.36789 23.8468 3.82671C25.2358 5.41918 25.3164 8.20565 24.9491 10.1244C27.4447 9.83838 30.7526 9.3094 33.2898 10.2084C34.6018 8.40765 36.4838 6.03353 38.7725 5.91344C39.4264 5.99119 40.2067 6.36119 40.3268 7.09495C40.0824 10.5749 36.7705 13.0282 34.2721 15.4391L31.4106 17.7681C31.3676 18.4255 31.9438 18.9968 32.4721 19.2446C33.2898 19.4473 33.9069 19.287 34.7636 19.4473C34.6817 18.0138 35.7847 16.5831 37.0141 15.7251C37.9555 14.9906 39.4264 14.9906 40.5302 15.3176C40.9828 16.4609 40.2449 17.4821 39.6715 18.2589L37.0961 19.8534L41.1432 19.7299L43.1084 19.448ZM20.1224 2.35364C16.521 0.879181 11.8199 1.65737 9.04111 4.2335C7.11682 5.87109 6.54481 8.44931 7.27648 10.8234C8.0158 12.293 9.81791 12.4173 11.2056 12.5749L20.2051 5.01029L21.1846 4.93046L21.39 5.62535L13.2514 12.3736C16.9715 12.0063 20.1218 11.2316 23.6371 10.4125C23.9676 9.06297 24.3313 7.25947 23.7614 5.91482C23.0262 4.19254 21.5129 3.37548 20.1224 2.35364ZM38.9766 7.09564C36.8107 7.22337 35.3752 9.26359 34.1506 10.9005L34.5588 11.3094C34.7219 11.8835 35.6626 12.6214 34.7629 13.1531C33.825 13.6016 33.9062 12.2514 33.3738 12.0056C32.597 13.3149 31.7376 14.8289 31.41 16.4158C34.313 13.6828 38.2012 11.1851 39.2626 7.38581L38.9766 7.09564ZM24.6222 11.5155C23.6385 13.3607 22.7812 15.2371 21.3907 16.9135C22.2918 15.6848 23.4754 14.8678 24.7423 14.3388C25.9335 14.0091 27.6891 14.3388 28.5513 15.4398C27.7738 16.5838 26.7887 15.2808 25.8099 15.4398C24.541 15.6855 23.315 16.2978 22.4966 17.4016C22.3293 18.1791 21.1457 18.8295 21.8017 19.7306C24.6229 20.1006 25.2365 16.665 27.4864 16.0923C27.6474 16.2978 27.9348 16.4623 27.9758 16.7067C27.3621 17.5633 25.8099 18.304 25.4399 19.5286C27.2802 19.5286 28.7116 18.2596 30.1431 17.4016C29.9778 15.0739 31.3301 13.1101 32.4728 11.1858C29.9771 10.4125 27.074 10.9401 24.6222 11.5155ZM23.1463 11.6794L17.6706 12.99C14.9299 14.0917 11.0418 12.4166 9.24451 15.8063C8.99599 17.035 9.61312 17.893 10.0984 18.7545C11.1223 19.5286 12.3121 20.1006 13.7415 19.8541C18.119 19.5293 21.5948 15.4856 23.1463 11.6794ZM36.0305 19.0385C37.2599 18.5484 39.3036 17.8937 39.5486 16.0923C37.9145 15.8501 36.3192 17.523 36.0305 19.0385Z" fill="#6A716C"/>
</svg>
